<?xml version="1.0" encoding="UTF-8" standalone="no"?>
<svg
   xmlns:dc="http://purl.org/dc/elements/1.1/"
   xmlns:cc="http://creativecommons.org/ns#"
   xmlns:rdf="http://www.w3.org/1999/02/22-rdf-syntax-ns#"
   xmlns:svg="http://www.w3.org/2000/svg"
   xmlns="http://www.w3.org/2000/svg"
   xmlns:sodipodi="http://sodipodi.sourceforge.net/DTD/sodipodi-0.dtd"
   xmlns:inkscape="http://www.inkscape.org/namespaces/inkscape"
   sodipodi:docname="query-structure.svg"
   inkscape:version="1.0 (4035a4fb49, 2020-05-01)"
   id="svg8"
   version="1.1"
   viewBox="0 0 145.61203 101.05703"
   height="101.05703mm"
   width="145.61203mm">
  <defs
     id="defs2" />
  <sodipodi:namedview
     fit-margin-bottom="0"
     fit-margin-right="0"
     fit-margin-left="0"
     fit-margin-top="0"
     inkscape:window-maximized="1"
     inkscape:window-y="28"
     inkscape:window-x="0"
     inkscape:window-height="1024"
     inkscape:window-width="1920"
     showgrid="false"
     inkscape:document-rotation="0"
     inkscape:current-layer="layer1"
     inkscape:document-units="mm"
     inkscape:cy="193.58279"
     inkscape:cx="277.84806"
     inkscape:zoom="1.6213092"
     inkscape:pageshadow="2"
     inkscape:pageopacity="0"
     borderopacity="1.0"
     bordercolor="#666666"
     pagecolor="#838383"
     id="base" />
  <metadata
     id="metadata5">
    <rdf:RDF>
      <cc:Work
         rdf:about="">
        <dc:format>image/svg+xml</dc:format>
        <dc:type
           rdf:resource="http://purl.org/dc/dcmitype/StillImage" />
        <dc:title></dc:title>
      </cc:Work>
    </rdf:RDF>
  </metadata>
  <g
     transform="translate(-67.824091,-71.50227)"
     id="layer1"
     inkscape:groupmode="layer"
     inkscape:label="Layer 1">
    <g
       style="font-style:normal;font-weight:normal;font-size:10.5833px;line-height:1.25;font-family:sans-serif;letter-spacing:0px;word-spacing:0px;fill:#ffffff;fill-opacity:1;stroke:none;stroke-width:0.264583"
       id="text12"
       aria-label="query {

  widget(id: 1) {

    name
  }
}">
      <path
         id="path1166"
         style="fill:#ffffff;stroke-width:0.264583"
         d="m 77.427638,86.194259 q 0,1.049028 0.428913,1.648473 0.434081,0.594277 1.188554,0.594277 0.754474,0 1.188554,-0.594277 0.434081,-0.599445 0.434081,-1.648473 0,-1.049029 -0.434081,-1.643306 -0.43408,-0.599444 -1.188554,-0.599444 -0.754473,0 -1.188554,0.599444 -0.428913,0.594277 -0.428913,1.643306 z m 3.240102,2.020542 q -0.299723,0.516762 -0.759641,0.769976 -0.454751,0.248046 -1.095537,0.248046 -1.049028,0 -1.710485,-0.837155 -0.656288,-0.837156 -0.656288,-2.201409 0,-1.364254 0.656288,-2.201409 0.661457,-0.837156 1.710485,-0.837156 0.640786,0 1.095537,0.253214 0.459918,0.248046 0.759641,0.764809 V 83.29522 h 0.950843 v 7.989151 H 80.66774 Z" />
      <path
         id="path1168"
         style="fill:#ffffff;stroke-width:0.264583"
         d="M 83.478929,86.798871 V 83.29522 h 0.950843 v 3.467478 q 0,0.821652 0.320393,1.235062 0.320393,0.408243 0.961178,0.408243 0.769977,0 1.214393,-0.490925 0.449583,-0.490924 0.449583,-1.338415 V 83.29522 h 0.950843 v 5.787742 H 87.375319 V 88.19413 q -0.346231,0.527098 -0.80615,0.78548 -0.454751,0.253213 -1.059363,0.253213 -0.997352,0 -1.514115,-0.620115 -0.516762,-0.620115 -0.516762,-1.813837 z" />
      <path
         id="path1170"
         style="fill:#ffffff;stroke-width:0.264583"
         d="m 95.23528,85.95138 v 0.465087 h -4.371813 q 0.06201,0.981849 0.58911,1.498611 0.532265,0.511595 1.477941,0.511595 0.547768,0 1.059363,-0.134358 0.516763,-0.134358 1.023191,-0.403075 v 0.899167 q -0.511595,0.217041 -1.049029,0.330728 -0.537433,0.113688 -1.090369,0.113688 -1.384924,0 -2.196241,-0.80615 -0.80615,-0.806149 -0.80615,-2.180738 0,-1.421097 0.764809,-2.253085 0.769976,-0.837156 2.072218,-0.837156 1.167884,0 1.844843,0.754474 0.682127,0.749306 0.682127,2.041212 z m -0.950844,-0.279052 q -0.01033,-0.780311 -0.439248,-1.245398 -0.423745,-0.465086 -1.126543,-0.465086 -0.795814,0 -1.276404,0.449583 -0.475421,0.449584 -0.547768,1.266069 z" />
      <path
         id="path1172"
         style="fill:#ffffff;stroke-width:0.264583"
         d="m 100.14969,84.184052 q -0.160193,-0.09302 -0.351395,-0.134358 -0.186035,-0.04651 -0.41341,-0.04651 -0.80615,0 -1.240231,0.527098 -0.428913,0.52193 -0.428913,1.503779 v 3.0489 H 96.75973 V 83.29522 h 0.956011 v 0.899167 q 0.299722,-0.527098 0.780312,-0.780312 0.480589,-0.258381 1.167883,-0.258381 0.09818,0 0.217041,0.0155 0.118855,0.01033 0.263553,0.03617 z" />
      <path
         id="path1174"
         style="fill:#ffffff;stroke-width:0.264583"
         d="m 103.55516,89.620395 q -0.40308,1.033526 -0.78548,1.348751 -0.38241,0.315225 -1.02319,0.315225 h -0.75964 v -0.795814 h 0.5581 q 0.39274,0 0.60978,-0.186035 0.21704,-0.186035 0.48059,-0.878497 l 0.17053,-0.43408 -2.34093,-5.694725 h 1.00768 l 1.80867,4.526841 1.80867,-4.526841 h 1.00769 z" />
      <path
         id="path1176"
         style="fill:#ffffff;stroke-width:0.264583"
         d="m 115.18749,90.064811 v 0.744138 h -0.3204 q -1.28674,0 -1.72598,-0.382404 -0.43408,-0.382404 -0.43408,-1.52445 v -1.235063 q 0,-0.780311 -0.27906,-1.080034 -0.27905,-0.299722 -1.01285,-0.299722 h -0.31523 v -0.738971 h 0.31523 q 0.73897,0 1.01285,-0.294554 0.27906,-0.299723 0.27906,-1.069699 v -1.240231 q 0,-1.142045 0.43408,-1.519282 0.43924,-0.382404 1.72598,-0.382404 h 0.3204 v 0.73897 h -0.3514 q -0.72864,0 -0.95085,0.227376 -0.2222,0.227376 -0.2222,0.956011 v 1.281571 q 0,0.811318 -0.23771,1.178219 -0.23255,0.366902 -0.80099,0.496092 0.57361,0.139526 0.80615,0.506428 0.23255,0.366901 0.23255,1.173051 v 1.281572 q 0,0.728635 0.2222,0.956011 0.22221,0.227375 0.95085,0.227375 z" />
      <path
         id="path1178"
         style="fill:#ffffff;stroke-width:0.264583"
         d="m 83.034513,109.75347 h 0.950843 l 1.188554,4.5165 1.183387,-4.5165 h 1.121375 l 1.188554,4.5165 1.183387,-4.5165 h 0.950843 l -1.514115,5.78774 h -1.121375 l -1.245398,-4.74388 -1.250565,4.74388 h -1.121376 z" />
      <path
         id="path1180"
         style="fill:#ffffff;stroke-width:0.264583"
         d="m 92.243224,109.75347 h 0.950844 v 5.78774 h -0.950844 z m 0,-2.25309 h 0.950844 v 1.20406 h -0.950844 z" />
      <path
         id="path1182"
         style="fill:#ffffff;stroke-width:0.264583"
         d="m 98.992145,110.63197 v -3.13159 h 0.950844 v 8.04083 h -0.950844 v -0.86816 q -0.299722,0.51676 -0.759641,0.76998 -0.454751,0.24804 -1.095537,0.24804 -1.049028,0 -1.710484,-0.83715 -0.656289,-0.83716 -0.656289,-2.20141 0,-1.36426 0.656289,-2.20141 0.661456,-0.83716 1.710484,-0.83716 0.640786,0 1.095537,0.25322 0.459919,0.24804 0.759641,0.76481 z m -3.240101,2.02054 q 0,1.04903 0.428913,1.64847 0.43408,0.59428 1.188554,0.59428 0.754473,0 1.188554,-0.59428 0.43408,-0.59944 0.43408,-1.64847 0,-1.04903 -0.43408,-1.64331 -0.434081,-0.59944 -1.188554,-0.59944 -0.754474,0 -1.188554,0.59944 -0.428913,0.59428 -0.428913,1.64331 z" />
      <path
         id="path1184"
         style="fill:#ffffff;stroke-width:0.264583"
         d="m 105.71006,112.58016 q 0,-1.03352 -0.42891,-1.60196 -0.42375,-0.56844 -1.19372,-0.56844 -0.76481,0 -1.19373,0.56844 -0.42374,0.56844 -0.42374,1.60196 0,1.02836 0.42374,1.5968 0.42892,0.56844 1.19373,0.56844 0.76997,0 1.19372,-0.56844 0.42891,-0.56844 0.42891,-1.5968 z m 0.95084,2.24275 q 0,1.47794 -0.65629,2.19624 -0.65628,0.72347 -2.0102,0.72347 -0.50126,0 -0.94568,-0.0775 -0.44441,-0.0724 -0.86299,-0.22738 v -0.92501 q 0.41858,0.22738 0.82682,0.3359 0.40824,0.10852 0.83199,0.10852 0.93534,0 1.40042,-0.49092 0.46509,-0.48576 0.46509,-1.47278 v -0.47025 q -0.29455,0.51159 -0.75447,0.76481 -0.45992,0.25321 -1.10071,0.25321 -1.06453,0 -1.71565,-0.81132 -0.65112,-0.81131 -0.65112,-2.14973 0,-1.34358 0.65112,-2.1549 0.65112,-0.81132 1.71565,-0.81132 0.64079,0 1.10071,0.25322 0.45992,0.25321 0.75447,0.76481 v -0.8785 h 0.95084 z" />
      <path
         id="path1186"
         style="fill:#ffffff;stroke-width:0.264583"
         d="m 113.57002,112.40963 v 0.46509 h -4.37181 q 0.062,0.98184 0.58911,1.49861 0.53226,0.51159 1.47794,0.51159 0.54777,0 1.05936,-0.13436 0.51676,-0.13435 1.02319,-0.40307 v 0.89917 q -0.51159,0.21704 -1.04903,0.33072 -0.53743,0.11369 -1.09037,0.11369 -1.38492,0 -2.19624,-0.80615 -0.80615,-0.80615 -0.80615,-2.18074 0,-1.42109 0.76481,-2.25308 0.76998,-0.83716 2.07222,-0.83716 1.16788,0 1.84484,0.75448 0.68213,0.7493 0.68213,2.04121 z m -0.95084,-0.27905 q -0.0103,-0.78031 -0.43925,-1.2454 -0.42375,-0.46509 -1.12654,-0.46509 -0.79582,0 -1.27641,0.44959 -0.47542,0.44958 -0.54777,1.26607 z" />
      <path
         id="path1188"
         style="fill:#ffffff;stroke-width:0.264583"
         d="m 116.07115,108.11016 v 1.64331 h 1.95853 v 0.73897 h -1.95853 v 3.14192 q 0,0.70796 0.1912,0.9095 0.19637,0.20154 0.79065,0.20154 h 0.97668 v 0.79581 H 117.053 q -1.10071,0 -1.51928,-0.40824 -0.41858,-0.41341 -0.41858,-1.49861 v -3.14192 h -0.69763 v -0.73897 h 0.69763 v -1.64331 z" />
      <path
         id="path1190"
         style="fill:#ffffff;stroke-width:0.264583"
         d="m 121.56434,107.51072 q -0.69246,1.18855 -1.02836,2.35127 -0.3359,1.16272 -0.3359,2.35644 0,1.19372 0.3359,2.36677 0.34106,1.16788 1.02836,2.35127 h -0.82682 q -0.77515,-1.21439 -1.16272,-2.38744 -0.3824,-1.17305 -0.3824,-2.3306 0,-1.15238 0.3824,-2.32027 0.38241,-1.16788 1.16272,-2.38744 z" />
      <path
         id="path1192"
         style="fill:#ffffff;stroke-width:0.264583"
         d="m 123.40918,109.75347 h 0.95084 v 5.78774 h -0.95084 z m 0,-2.25309 h 0.95084 v 1.20406 h -0.95084 z" />
      <path
         id="path1194"
         style="fill:#ffffff;stroke-width:0.264583"
         d="m 130.1581,110.63197 v -3.13159 h 0.95084 v 8.04083 h -0.95084 v -0.86816 q -0.29972,0.51676 -0.75964,0.76998 -0.45475,0.24804 -1.09554,0.24804 -1.04903,0 -1.71048,-0.83715 -0.65629,-0.83716 -0.65629,-2.20141 0,-1.36426 0.65629,-2.20141 0.66145,-0.83716 1.71048,-0.83716 0.64079,0 1.09554,0.25322 0.45992,0.24804 0.75964,0.76481 z m -3.2401,2.02054 q 0,1.04903 0.42891,1.64847 0.43408,0.59428 1.18856,0.59428 0.75447,0 1.18855,-0.59428 0.43408,-0.59944 0.43408,-1.64847 0,-1.04903 -0.43408,-1.64331 -0.43408,-0.59944 -1.18855,-0.59944 -0.75448,0 -1.18856,0.59944 -0.42891,0.59428 -0.42891,1.64331 z" />
      <path
         id="path1196"
         style="fill:#ffffff;stroke-width:0.264583"
         d="m 133.31035,114.22863 h 1.09037 v 1.31258 h -1.09037 z m 0,-4.15994 h 1.09037 v 1.31258 h -1.09037 z" />
      <path
         id="path1198"
         style="fill:#ffffff;stroke-width:0.264583"
         d="m 140.31249,114.66271 h 1.70532 v -5.88592 l -1.85518,0.37207 v -0.95085 l 1.84484,-0.37207 h 1.04386 v 6.83677 h 1.70532 v 0.8785 h -4.44416 z" />
      <path
         id="path1200"
         style="fill:#ffffff;stroke-width:0.264583"
         d="m 146.58082,107.51072 h 0.82682 q 0.77514,1.21956 1.15755,2.38744 0.38757,1.16789 0.38757,2.32027 0,1.15755 -0.38757,2.3306 -0.38241,1.17305 -1.15755,2.38744 h -0.82682 q 0.68729,-1.18339 1.02319,-2.35127 0.34106,-1.17305 0.34106,-2.36677 0,-1.19372 -0.34106,-2.35644 -0.3359,-1.16272 -1.02319,-2.35127 z" />
      <path
         id="path1202"
         style="fill:#ffffff;stroke-width:0.264583"
         d="m 158.63689,116.52306 v 0.74414 h -0.32039 q -1.28674,0 -1.72599,-0.38241 -0.43408,-0.3824 -0.43408,-1.52445 v -1.23506 q 0,-0.78031 -0.27905,-1.08003 -0.27905,-0.29972 -1.01286,-0.29972 h -0.31522 v -0.73898 h 0.31522 q 0.73898,0 1.01286,-0.29455 0.27905,-0.29972 0.27905,-1.0697 v -1.24023 q 0,-1.14204 0.43408,-1.51928 0.43925,-0.38241 1.72599,-0.38241 h 0.32039 v 0.73897 h -0.3514 q -0.72863,0 -0.95084,0.22738 -0.22221,0.22738 -0.22221,0.95601 v 1.28157 q 0,0.81132 -0.23771,1.17822 -0.23254,0.3669 -0.80098,0.49609 0.57361,0.13953 0.80615,0.50643 0.23254,0.3669 0.23254,1.17305 v 1.28157 q 0,0.72864 0.22221,0.95601 0.22221,0.22738 0.95084,0.22738 z" />
      <path
         id="path1204"
         style="fill:#ffffff;stroke-width:0.264583"
         d="m 95.126759,138.50614 v 3.49332 h -0.950843 v -3.46231 q 0,-0.82165 -0.320393,-1.22989 -0.320393,-0.40825 -0.961178,-0.40825 -0.769977,0 -1.214393,0.49093 -0.444415,0.49092 -0.444415,1.33841 v 3.27111 h -0.956011 v -5.78774 h 0.956011 v 0.89917 q 0.341063,-0.52194 0.800982,-0.78032 0.465086,-0.25838 1.069698,-0.25838 0.997352,0 1.508947,0.62012 0.511595,0.61495 0.511595,1.81383 z" />
      <path
         id="path1206"
         style="fill:#ffffff;stroke-width:0.264583"
         d="m 99.653601,139.09009 q -1.152381,0 -1.596797,0.26355 -0.444416,0.26354 -0.444416,0.89916 0,0.50643 0.330728,0.80615 0.335896,0.29456 0.909502,0.29456 0.790647,0 1.266072,-0.55811 0.48059,-0.56327 0.48059,-1.49344 v -0.21187 z m 1.896519,-0.39274 v 3.30211 h -0.95084 v -0.8785 q -0.32556,0.5271 -0.811321,0.78032 -0.485757,0.24804 -1.188554,0.24804 -0.888832,0 -1.41593,-0.49609 -0.52193,-0.50126 -0.52193,-1.33842 0,-0.97668 0.651121,-1.47277 0.656288,-0.49609 1.953363,-0.49609 h 1.333251 v -0.093 q 0,-0.65629 -0.43408,-1.01285 -0.428917,-0.36174 -1.209229,-0.36174 -0.496092,0 -0.966346,0.11886 -0.470254,0.11885 -0.904335,0.35656 v -0.87849 q 0.52193,-0.20154 1.012855,-0.29973 0.490924,-0.10335 0.956011,-0.10335 1.255734,0 1.875844,0.65112 0.62012,0.65112 0.62012,1.97404 z" />
      <path
         id="path1208"
         style="fill:#ffffff;stroke-width:0.264583"
         d="m 108.01482,137.32276 q 0.35657,-0.64079 0.85266,-0.94568 0.49609,-0.30489 1.16788,-0.30489 0.90434,0 1.39526,0.63562 0.49093,0.63045 0.49093,1.79833 v 3.49332 h -0.95601 v -3.46231 q 0,-0.83199 -0.29456,-1.23506 -0.29455,-0.40308 -0.89917,-0.40308 -0.73897,0 -1.16788,0.49093 -0.42891,0.49092 -0.42891,1.33841 v 3.27111 h -0.95601 v -3.46231 q 0,-0.83716 -0.29456,-1.23506 -0.29455,-0.40308 -0.9095,-0.40308 -0.72864,0 -1.15755,0.49609 -0.42891,0.49093 -0.42891,1.33325 v 3.27111 h -0.95601 v -5.78774 h 0.95601 v 0.89917 q 0.32556,-0.53227 0.78031,-0.78548 0.45475,-0.25322 1.08003,-0.25322 0.63045,0 1.0697,0.3204 0.44442,0.32039 0.65629,0.93017 z" />
      <path
         id="path1210"
         style="fill:#ffffff;stroke-width:0.264583"
         d="m 118.76865,138.86788 v 0.46508 h -4.37181 q 0.062,0.98185 0.58911,1.49862 0.53226,0.51159 1.47794,0.51159 0.54777,0 1.05936,-0.13436 0.51677,-0.13435 1.02319,-0.40307 v 0.89917 q -0.51159,0.21704 -1.04902,0.33072 -0.53744,0.11369 -1.09037,0.11369 -1.38493,0 -2.19625,-0.80615 -0.80615,-0.80615 -0.80615,-2.18074 0,-1.42109 0.76481,-2.25308 0.76998,-0.83716 2.07222,-0.83716 1.16789,0 1.84484,0.75448 0.68213,0.7493 0.68213,2.04121 z m -0.95084,-0.27905 q -0.0103,-0.78032 -0.43925,-1.2454 -0.42375,-0.46509 -1.12654,-0.46509 -0.79582,0 -1.27641,0.44959 -0.47542,0.44958 -0.54777,1.26606 z" />
      <path
         id="path1212"
         style="fill:#ffffff;stroke-width:0.264583"
         d="m 83.913009,156.21043 h 0.361734 q 0.723468,0 0.940508,-0.2222 0.222208,-0.22221 0.222208,-0.96118 v -1.28157 q 0,-0.80615 0.232544,-1.17306 0.232543,-0.3669 0.806149,-0.50642 -0.573606,-0.12919 -0.806149,-0.49609 -0.232544,-0.36691 -0.232544,-1.17822 v -1.28158 q 0,-0.7338 -0.222208,-0.95601 -0.21704,-0.22737 -0.940508,-0.22737 h -0.361734 v -0.73897 h 0.325561 q 1.286739,0 1.715652,0.3824 0.434081,0.37724 0.434081,1.51928 v 1.24023 q 0,0.76998 0.279051,1.0697 0.279052,0.29456 1.012855,0.29456 h 0.320393 v 0.73897 h -0.320393 q -0.733803,0 -1.012855,0.29972 -0.279051,0.29972 -0.279051,1.08004 v 1.23506 q 0,1.14204 -0.434081,1.52445 -0.428913,0.3824 -1.715652,0.3824 h -0.325561 z" />
      <path
         id="path1214"
         style="fill:#ffffff;stroke-width:0.264583"
         d="m 77.184759,169.43956 h 0.361734 q 0.723468,0 0.940508,-0.22221 0.222208,-0.22221 0.222208,-0.96118 v -1.28157 q 0,-0.80615 0.232543,-1.17305 0.232544,-0.3669 0.80615,-0.50643 -0.573606,-0.12919 -0.80615,-0.49609 -0.232543,-0.3669 -0.232543,-1.17822 v -1.28157 q 0,-0.7338 -0.222208,-0.95601 -0.21704,-0.22738 -0.940508,-0.22738 h -0.361734 v -0.73897 h 0.325561 q 1.286739,0 1.715652,0.38241 0.434081,0.37723 0.434081,1.51928 v 1.24023 q 0,0.76998 0.279051,1.0697 0.279052,0.29455 1.012855,0.29455 h 0.320393 v 0.73897 h -0.320393 q -0.733803,0 -1.012855,0.29973 -0.279051,0.29972 -0.279051,1.08003 v 1.23506 q 0,1.14205 -0.434081,1.52445 -0.428913,0.38241 -1.715652,0.38241 h -0.325561 z" />
    </g>
    <path
       id="path867"
       d="m 74.642066,82.984572 v -3.72341 h 32.480954 v 3.614632 l 0.0908,-0.229153"
       style="fill:none;stroke:#ffffff;stroke-width:0.264583px;stroke-linecap:butt;stroke-linejoin:miter;stroke-opacity:1" />
    <text
       id="text871"
       y="75.254669"
       x="67.546761"
       style="font-style:normal;font-weight:normal;font-size:4.93889px;line-height:1.25;font-family:sans-serif;letter-spacing:0px;word-spacing:0px;fill:#000000;fill-opacity:1;stroke:none;stroke-width:0.264583"
       xml:space="preserve"><tspan
         style="font-size:4.93889px;fill:#ffffff;stroke-width:0.264583"
         y="75.254669"
         x="67.546761"
         id="tspan869"
         sodipodi:role="line">OperationDefinition</tspan></text>
    <path
       style="fill:none;stroke:#ffffff;stroke-width:0.264583px;stroke-linecap:butt;stroke-linejoin:miter;stroke-opacity:1"
       d="m 176.70339,172.42701 h 3.72341 V 79.086257 h -3.61463 l 0.22915,-0.260932"
       id="path882" />
    <text
       xml:space="preserve"
       style="font-style:normal;font-weight:normal;font-size:4.93889px;line-height:1.25;font-family:sans-serif;letter-spacing:0px;word-spacing:0px;fill:#000000;fill-opacity:1;stroke:none;stroke-width:0.264583"
       x="182.68381"
       y="123.3625"
       id="text886"><tspan
         sodipodi:role="line"
         id="tspan884"
         x="182.68381"
         y="123.3625"
         style="font-size:4.93889px;fill:#ffffff;stroke-width:0.264583">SelectionSet</tspan></text>
    <path
       style="fill:none;stroke:#ffffff;stroke-width:0.264583px;stroke-linecap:butt;stroke-linejoin:miter;stroke-opacity:1"
       d="m 81.247651,106.79712 v -3.72343 h 37.702609 v 3.61465 l 0.1054,-0.22915"
       id="path903" />
    <text
       xml:space="preserve"
       style="font-style:normal;font-weight:normal;font-size:4.93889px;line-height:1.25;font-family:sans-serif;letter-spacing:0px;word-spacing:0px;fill:#000000;fill-opacity:1;stroke:none;stroke-width:0.264583"
       x="97.70929"
       y="100.12553"
       id="text907"><tspan
         sodipodi:role="line"
         id="tspan905"
         x="97.70929"
         y="100.12553"
         style="font-size:4.93889px;fill:#ffffff;stroke-width:0.264583">Field</tspan></text>
    <path
       id="path909"
       d="m 122.55536,106.79712 v -3.72343 h 9.93157 v 3.61465 l 0.0278,-0.22915"
       style="fill:none;stroke:#ffffff;stroke-width:0.264583px;stroke-linecap:butt;stroke-linejoin:miter;stroke-opacity:1" />
    <text
       id="text913"
       y="100.12553"
       x="115.701"
       style="font-style:normal;font-weight:normal;font-size:4.93889px;line-height:1.25;font-family:sans-serif;letter-spacing:0px;word-spacing:0px;fill:#000000;fill-opacity:1;stroke:none;stroke-width:0.264583"
       xml:space="preserve"><tspan
         style="font-size:4.93889px;fill:#ffffff;stroke-width:0.264583"
         y="100.12553"
         x="115.701"
         id="tspan911"
         sodipodi:role="line">Argument</tspan></text>
    <path
       style="fill:none;stroke:#ffffff;stroke-width:0.264583px;stroke-linecap:butt;stroke-linejoin:miter;stroke-opacity:1"
       d="m 138.9748,117.75816 v 3.72343 h 6.79395 v -3.61465 l 0.019,0.22915"
       id="path915" />
    <path
       id="path917"
       d="m 174.69301,159.94173 h 3.72341 v -53.79461 h -3.61463 l 0.22915,-0.15038"
       style="fill:none;stroke:#ffffff;stroke-width:0.264583px;stroke-linecap:butt;stroke-linejoin:miter;stroke-opacity:1" />
    <path
       id="path919"
       d="m 88.332578,135.90147 v -3.72343 h 32.872642 v 3.61465 l 0.0919,-0.22915"
       style="fill:none;stroke:#ffffff;stroke-width:0.264583px;stroke-linecap:butt;stroke-linejoin:miter;stroke-opacity:1" />
    <text
       id="text923"
       y="128.17137"
       x="99.825958"
       style="font-style:normal;font-weight:normal;font-size:4.93889px;line-height:1.25;font-family:sans-serif;letter-spacing:0px;word-spacing:0px;fill:#000000;fill-opacity:1;stroke:none;stroke-width:0.264583"
       xml:space="preserve"><tspan
         style="font-size:4.93889px;fill:#ffffff;stroke-width:0.264583"
         y="128.17137"
         x="99.825958"
         id="tspan921"
         sodipodi:role="line">Field</tspan></text>
    <text
       xml:space="preserve"
       style="font-style:normal;font-weight:normal;font-size:4.93889px;line-height:1.25;font-family:sans-serif;letter-spacing:0px;word-spacing:0px;fill:#000000;fill-opacity:1;stroke:none;stroke-width:0.264583"
       x="132.63429"
       y="127.11303"
       id="text927"><tspan
         sodipodi:role="line"
         id="tspan925"
         x="132.63429"
         y="127.11303"
         style="font-size:4.93889px;fill:#ffffff;stroke-width:0.264583">IntValue</tspan></text>
  </g>
</svg>
