<?xml version="1.0" encoding="UTF-8" standalone="no"?>
<svg
   xmlns:dc="http://purl.org/dc/elements/1.1/"
   xmlns:cc="http://creativecommons.org/ns#"
   xmlns:rdf="http://www.w3.org/1999/02/22-rdf-syntax-ns#"
   xmlns:svg="http://www.w3.org/2000/svg"
   xmlns="http://www.w3.org/2000/svg"
   id="svg2137"
   version="1.1"
   viewBox="0 0 63.812 51.858028"
   height="51.858028"
   width="63.812">
  <metadata
     id="metadata2143">
    <rdf:RDF>
      <cc:Work
         rdf:about="">
        <dc:format>image/svg+xml</dc:format>
        <dc:type
           rdf:resource="http://purl.org/dc/dcmitype/StillImage" />
        <dc:title></dc:title>
      </cc:Work>
    </rdf:RDF>
  </metadata>
  <defs
     id="defs2141" />
  <path
     style="fill:#ffffff"
     id="path2135"
     d="m 63.812,6.1410084 a 26.246,26.246 0 0 1 -7.519,2.06 A 13.134,13.134 0 0 0 62.049,0.95700837 26.127,26.127 0 0 1 53.736,4.1330084 13.075,13.075 0 0 0 44.182,8.3718985e-6 C 36.953,8.3718985e-6 31.09,5.8610084 31.09,13.093008 c 0,1.026 0.118,2.021 0.338,2.981 -10.885,-0.548 -20.528,-5.757 -26.987,-13.6789996 a 13.048,13.048 0 0 0 -1.771,6.581 c 0,4.5419996 2.312,8.5509996 5.824,10.8979996 a 13.048,13.048 0 0 1 -5.93,-1.638 c -0.002,0.055 -0.002,0.11 -0.002,0.162 0,6.345 4.513,11.638 10.504,12.84 a 13.177,13.177 0 0 1 -3.449,0.457 c -0.846,0 -1.667,-0.078 -2.465,-0.231 1.667,5.2 6.499,8.986 12.23,9.09 a 26.276,26.276 0 0 1 -16.26,5.606 26.21,26.21 0 0 1 -3.122,-0.184 37.036,37.036 0 0 0 20.067,5.882 c 24.083,0 37.251,-19.949 37.251,-37.249 0,-0.566 -0.014,-1.134 -0.039,-1.694 a 26.597,26.597 0 0 0 6.533,-6.7739996 z" />
</svg>
